<svg width="555" height="555" viewBox="0 0 555 555" fill="none" xmlns="http://www.w3.org/2000/svg"><path d="M62.317 277.5c0-118.837 96.338-215.182 215.183-215.182 118.844 0 215.182 96.337 215.182 215.182 0 118.845-96.338 215.182-215.182 215.182-118.845 0-215.183-96.337-215.183-215.182z" fill="#3E5FFF"/><path d="M227.728 398.704h99.537l64.513-303.538c-33.12-20.803-72.295-32.84-114.285-32.84-41.991 0-81.166 12.045-114.286 32.84l64.513 303.538h.008z" fill="#C3DCF4"/><path d="M247.003 148.362a27.483 27.483 0 01-8.038 19.411l-8.454 8.454a27.449 27.449 0 00-8.038 19.412v2.167c0 15.165 12.293 27.45 27.449 27.45h51.796c15.165 0 27.45-12.293 27.45-27.45v-2.591c0-3.711-1.472-7.262-4.095-9.886l-6.655-6.654a13.989 13.989 0 01-4.095-9.886c0-3.703-1.471-7.262-4.095-9.886l-5.27-5.27" fill="#000"/><path d="M384.395 375.989l-43.597 53.236H233.326L132.47 385.123a38.82 38.82 0 01-23.267-35.568c0-18.251 14.797-33.056 33.057-33.056a24.857 24.857 0 0023.13-15.756l17.372-44.174a56.568 56.568 0 0123.451-27.754l41.23-24.842h60.098l40.151 24.194a56.563 56.563 0 0124.234 29.849l22.123 63.498a56.57 56.57 0 01-9.654 54.459" fill="#95D1F9"/><path d="M361.113 239.429a56.726 56.726 0 00-13.421-11.262l-40.151-24.194h-60.098l-41.23 24.842a56.611 56.611 0 00-12.438 10.158l33.953 159.723h99.537l33.856-159.275-.008.008z" fill="#E2F1FF"/><path d="M359.144 408.206l-1.791.8 1.439-1.76.352.96z" fill="#fff"/><path d="M293.144 159.087h-31.305l-14.813 44.886 26.442 44.214c1.816 3.031 6.207 3.031 8.014 0l26.466-44.214-14.812-44.886h.008z" fill="#FFBD6E"/><path d="M432.537 374.03c-13.813-11.158-33.888-9.59-45.894 3.495-27.065 29.521-65.952 48.029-109.158 48.029-47.445 0-89.675-22.315-116.765-57.027-10.462-13.405-29.385-16.724-43.886-7.838-17.116 10.485-21.251 33.536-8.878 49.34 39.383 50.317 100.689 82.653 169.537 82.653 62.889 0 119.484-26.978 158.827-70 13.013-14.236 11.221-36.535-3.783-48.652z" fill="#C3DCF4"/><path d="M202.638 382.628l-3.319-32.561c-.24-2.383-3.703-2.399-3.975-.024l-.968 8.406a41.007 41.007 0 01-30.201 34.92l-14.317 3.807 33.784 40.639 19.004-55.179-.008-.008z" fill="#6AAED8"/><path d="M346.3 437.807H183.642l18.995-55.179h124.668l18.995 55.179z" fill="#95D1F9"/><path d="M432.537 374.03c-13.813-11.158-33.888-9.59-45.894 3.495-27.065 29.521-65.952 48.029-109.158 48.029-47.445 0-89.675-22.315-116.765-57.027-10.462-13.405-29.385-16.724-43.886-7.838-17.116 10.485-21.251 33.536-8.878 49.34 39.383 50.317 100.689 82.653 169.537 82.653 62.889 0 119.484-26.978 158.827-70 13.013-14.236 11.221-36.535-3.783-48.652z" fill="#95D1F9"/><path d="M160.727 368.527c-10.47-13.405-29.385-16.732-43.886-7.838-17.108 10.485-21.243 33.544-8.878 49.34 39.391 50.309 100.681 82.653 169.537 82.653v-43.494c0-12.653-9.27-23.386-21.787-25.234-38.463-5.67-72.111-26.138-94.978-55.435" fill="#95D1F9"/><path d="M123.903 352.787a8.385 8.385 0 014.767-7.559l10.134-4.839c4.247-2.031 9.334-.16 11.253 4.135l3.191 7.135a20.223 20.223 0 011.768 8.278v12.357a5.978 5.978 0 01-1.751 4.223l-5.231 5.231a3.043 3.043 0 01-4.583-.312l-17.852-23.579a8.36 8.36 0 01-1.696-5.055" fill="#FFBD6E"/><path d="M333.559 413.716H221.425c-5.583 0-10.102-4.526-10.102-10.101v-63.913a10.097 10.097 0 0110.102-10.102h112.134a10.098 10.098 0 0110.102 10.102v63.913c0 5.583-4.528 10.101-10.102 10.101z" fill="#fff"/><path d="M284.185 371.654a6.683 6.683 0 00-6.686-6.686 6.684 6.684 0 00-6.687 6.686 6.685 6.685 0 006.687 6.687c3.695 0 6.686-3 6.686-6.687z" fill="#C3DCF4"/><path d="M346.914 369.039h-33.448c-2.327 0-3.871 2.423-2.879 4.535l3.791 8.038a12.007 12.007 0 006.007 5.863l24.21 10.733c.728.32 1.52.488 2.319.488a5.717 5.717 0 005.719-5.719v-18.228a5.717 5.717 0 00-5.719-5.718" fill="#FFBD6E"/><path d="M368.607 469.944c0-2.408-2.144-4.271-4.527-3.904-37.159 5.751-66.808-10.013-66.808-10.013-9.558 0-19.78 11.941-19.78 11.941v24.714c31.673 0 61.738-6.854 88.811-19.147a3.941 3.941 0 002.304-3.591z" fill="#000"/><path d="M254.009 138.164c0 3.871-3.127 10.182-7.006 10.182h-.08c-3.847-.08-6.927-6.335-6.927-10.182 0-3.591 2.719-6.566 6.231-6.974.256 0 .512-.024.767-.024a6.98 6.98 0 014.904 1.999 6.963 6.963 0 012.103 4.999m60.963 0c0 3.847-3.103 10.11-6.927 10.182h-.08c-3.159 0-5.822-4.207-6.694-7.846a9.761 9.761 0 01-.304-2.336c0-3.847 3.127-7.006 7.006-7.006.256 0 .488.024.744.024 0 0 0 .024.024 0 3.487.408 6.231 3.383 6.231 6.974" fill="#FFBD6E"/><path d="M308.78 128.798c0 .384 0 .8-.024 1.208v.056l-.048 1.128-.464 11.621-.207 5.543-.305 7.47c0 .176-.023.36-.023.536a30.276 30.276 0 01-8.334 19.187 42.37 42.37 0 01-1.952 1.848c-.256.232-.512.44-.768.64a31.145 31.145 0 01-2.615 1.927c-.336.232-.696.44-1.024.664-2.568 1.512-5.335 2.672-8.286 3.384-.44.103-.872.207-1.312.279-.488.104-.952.184-1.439.256-.488.08-1 .128-1.488.176a4.41 4.41 0 01-.568.048c-.792.08-1.616.104-2.439.104-.568 0-1.128-.024-1.696-.048-.44-.024-.872-.048-1.312-.104a29.603 29.603 0 01-1.44-.176h-.08a9.457 9.457 0 01-1.207-.232c-.304-.024-.616-.104-.928-.183a30.15 30.15 0 01-15.236-8.599 30.228 30.228 0 01-8.366-19.723l-.257-6.111v-.128l-.047-1.231-.232-5.567-.408-10.182-.048-1.407-.048-1.128c-.592-14.853 9.262-27.634 22.906-31.4 1.024-.28 2.08-.537 3.152-.72a19.91 19.91 0 011.279-.177.53.53 0 01.208-.024c.336-.047.664-.08 1.024-.104.36-.047.72-.08 1.104-.08.536-.024 1.08-.048 1.615-.048 2.28 0 4.519.232 6.671.72a22.73 22.73 0 012.231.568c12.957 3.823 22.395 15.829 22.395 30.017" fill="#FFBD6E"/><path d="M290.184 136.916c0 2.928-.367 5.303-1.495 5.303-1.128 0-1.496-2.375-1.496-5.303 0-2.927.368-5.302 1.496-5.302 1.128 0 1.495 2.375 1.495 5.302zm-22.401 0c0 2.928-.368 5.303-1.496 5.303-1.128 0-1.496-2.375-1.496-5.303 0-2.927.368-5.302 1.496-5.302 1.128 0 1.496 2.375 1.496 5.302zm-6.351-8.806c-.504 0-1-.232-1.32-.655-.544-.72-.4-1.744.32-2.288.128-.096 3.199-2.383 7.758-2.175.904.04 1.607.807 1.567 1.711a1.653 1.653 0 01-1.711 1.568c-3.335-.152-5.615 1.504-5.639 1.52a1.658 1.658 0 01-.975.319zm32.097 0c-.344 0-.688-.104-.984-.328-.064-.048-2.335-1.663-5.638-1.519-.896.032-1.68-.664-1.712-1.568a1.655 1.655 0 011.568-1.719c4.559-.2 7.63 2.079 7.758 2.175.719.552.864 1.576.32 2.303-.32.432-.816.656-1.312.656zm-16.086 34.177a.912.912 0 110-1.824c7.238 0 12.085-4.295 12.133-4.335a.911.911 0 111.224 1.352c-.216.2-5.391 4.807-13.357 4.807z" fill="#000"/><path d="M277.467 97.493c-17.476 0-31.641 14.165-31.641 31.641v1.344l.32 4.055a1.796 1.796 0 003.552.208l2.007-10.038a25.018 25.018 0 0114.62-18.06h.016a28.011 28.011 0 0122.219 0 25.003 25.003 0 0114.613 18.06l2.007 10.046a1.796 1.796 0 003.552-.208l.32-4.119v-.056l.024.056v-1.28c0-17.476-14.165-31.64-31.641-31.64" fill="#000"/><path d="M298.767 176.123c-5.479 5.415-13.005 8.758-21.291 8.758-2.279 0-4.503-.256-6.646-.728-1.552-.344-2.376 1.8-.984 2.568a30.142 30.142 0 0014.652 3.775 30.1 30.1 0 0013.181-3.015 30.401 30.401 0 004.047-2.376l-2.959-8.982z" fill="#E59A48"/><path d="M51.581 343.075H41.89a5.883 5.883 0 00-5.1 2.947l-4.846 8.399a5.873 5.873 0 000 5.887l4.846 8.4a5.899 5.899 0 005.1 2.946h9.692a5.884 5.884 0 005.1-2.946l4.845-8.4a5.873 5.873 0 000-5.887l-4.846-8.399a5.9 5.9 0 00-5.099-2.947zM524.262 95.1h-9.693a5.885 5.885 0 00-5.099 2.947l-4.846 8.4a5.869 5.869 0 000 5.886l4.846 8.4a5.9 5.9 0 005.099 2.947h9.693a5.885 5.885 0 005.099-2.947l4.846-8.4a5.869 5.869 0 000-5.886l-4.846-8.4a5.9 5.9 0 00-5.099-2.947zM121.244 506.972h-9.692a5.882 5.882 0 00-5.099 2.947l-4.847 8.4a5.874 5.874 0 000 5.886l4.847 8.4a5.898 5.898 0 005.099 2.946h9.692a5.883 5.883 0 005.099-2.946l4.846-8.4a5.869 5.869 0 000-5.886l-4.846-8.4a5.899 5.899 0 00-5.099-2.947zm51.662-480.869h-9.693a5.885 5.885 0 00-5.099 2.947l-4.847 8.4a5.875 5.875 0 000 5.886l4.847 8.4a5.9 5.9 0 005.099 2.947h9.693a5.883 5.883 0 005.098-2.947l4.847-8.4a5.875 5.875 0 000-5.886l-4.847-8.4a5.898 5.898 0 00-5.098-2.947zM437.84 68.914h-9.693a5.886 5.886 0 00-5.099 2.947l-4.846 8.4a5.874 5.874 0 000 5.886l4.846 8.4a5.901 5.901 0 005.099 2.947h9.693a5.885 5.885 0 005.099-2.947l4.846-8.4a5.87 5.87 0 000-5.886l-4.846-8.4a5.9 5.9 0 00-5.099-2.947zM183.635 478.393h-9.693a5.883 5.883 0 00-5.099 2.947l-4.846 8.399a5.87 5.87 0 000 5.887l4.846 8.399a5.9 5.9 0 005.099 2.947h9.693a5.885 5.885 0 005.099-2.947l4.846-8.399a5.87 5.87 0 000-5.887l-4.846-8.399a5.9 5.9 0 00-5.099-2.947zm-93.57-361.548h-9.692a5.885 5.885 0 00-5.1 2.947l-4.845 8.4a5.871 5.871 0 000 5.886l4.846 8.4a5.899 5.899 0 005.099 2.946h9.692a5.884 5.884 0 005.1-2.946l4.846-8.4a5.874 5.874 0 000-5.886l-4.846-8.4a5.9 5.9 0 00-5.1-2.947zM425.4 456.027h-9.692a5.882 5.882 0 00-5.099 2.947l-4.846 8.399a5.87 5.87 0 000 5.887l4.846 8.4a5.898 5.898 0 005.099 2.946h9.692a5.883 5.883 0 005.099-2.946l4.847-8.4a5.875 5.875 0 000-5.887l-4.847-8.399a5.899 5.899 0 00-5.099-2.947zm83.28-105.349h-9.693a5.885 5.885 0 00-5.099 2.947l-4.846 8.4a5.869 5.869 0 000 5.886l4.846 8.4a5.9 5.9 0 005.099 2.947h9.693a5.887 5.887 0 005.099-2.947l4.846-8.4a5.869 5.869 0 000-5.886l-4.846-8.4a5.901 5.901 0 00-5.099-2.947zm19.341-36.183h-9.693a5.884 5.884 0 00-5.099 2.947l-4.846 8.4a5.869 5.869 0 000 5.886l4.846 8.4a5.899 5.899 0 005.099 2.947h9.693a5.887 5.887 0 005.099-2.947l4.846-8.4a5.874 5.874 0 000-5.886l-4.846-8.4a5.901 5.901 0 00-5.099-2.947z" fill="#FF7059"/></svg>