<svg xmlns="http://www.w3.org/2000/svg" xml:space="preserve" style="enable-background:new 0 0 24 24" viewBox="0 0 24 24"><path d="M21 6.6c-.7.3-1.4.5-2.1.6.7-.4 1.4-1.2 1.6-2-.7.4-1.5.7-2.3.9-.8-.7-1.7-1.2-2.8-1.2-2 0-3.7 1.6-3.7 3.6 0 .3 0 .6.1.8-3.8 0-6.5-2.2-8.3-4.4-.3.5-.5 1.2-.5 1.8 0 1.3.7 2.3 1.7 3-.6-.1-1.2-.2-1.7-.4v.1c0 1.8 1.3 3.2 2.9 3.5-.3 0-.6.1-.9.1-.2 0-.4 0-.7-.1.4 1.5 2.5 3.1 4.2 3.1-1.3 1-2.5 1.8-4.9 1.8H3c1.6 1 3.6 1.3 5.6 1.3 6.8 0 10.5-5.5 10.5-10.2v-.4c.8-.5 1.4-1.2 1.9-1.9z" style="fill:#494b7a"/></svg>
