<svg width="24" height="16" viewBox="0 0 24 16" fill="none" xmlns="http://www.w3.org/2000/svg">
<path d="M20.1445 3.87355C19.9494 3.13613 19.3728 2.55548 18.6416 2.35806C17.3164 2 12 2 12 2C12 2 6.68364 2 5.35841 2.35806C4.62722 2.55548 4.05057 3.13613 3.85545 3.87355C3.5 5.21097 3.5 8 3.5 8C3.5 8 3.5 10.789 3.85545 12.1265C4.05057 12.8639 4.62722 13.4445 5.35841 13.6419C6.68364 14 12 14 12 14C12 14 17.3164 14 18.6416 13.6419C19.3728 13.4445 19.9494 12.8639 20.1445 12.1265C20.5 10.789 20.5 8 20.5 8C20.5 8 20.5 5.21097 20.1445 3.87355ZM10.2614 10.5326V5.46742L14.7045 8L10.2614 10.5326Z" fill="#494B7A"/>
</svg>
